<?xml version="1.0" standalone="no"?><!DOCTYPE svg PUBLIC "-//W3C//DTD SVG 1.1//EN" "http://www.w3.org/Graphics/SVG/1.1/DTD/svg11.dtd"><svg t="1639566131050" class="icon" viewBox="0 0 1024 1024" version="1.1" xmlns="http://www.w3.org/2000/svg" p-id="2182" xmlns:xlink="http://www.w3.org/1999/xlink" width="16" height="16"><defs><style type="text/css"></style></defs><path d="M42.666667 42.666667h938.666666v938.666666H42.666667z" fill="#FFFFFF" fill-opacity="0" p-id="2183"></path><path d="M678.4 42.666667a106.666667 106.666667 0 0 1 106.453333 99.669333l0.213334 6.997333v280.362667a21.333333 21.333333 0 0 1-42.325334 3.84l-0.341333-3.84V149.333333a64 64 0 0 0-57.856-63.701333L678.4 85.333333h-426.666667a64 64 0 0 0-63.701333 57.856L187.733333 149.333333v640a64 64 0 0 0 57.856 63.701334L251.733333 853.333333h213.333334a21.333333 21.333333 0 0 1 3.84 42.325334L465.066667 896h-213.333334a106.666667 106.666667 0 0 1-106.453333-99.669333L145.066667 789.333333v-640a106.666667 106.666667 0 0 1 99.669333-106.453333L251.733333 42.666667h426.666667z" fill="#333333" p-id="2184"></path><path d="M725.333333 512a234.666667 234.666667 0 1 1 0 469.333333 234.666667 234.666667 0 0 1 0-469.333333z m0 42.666667a192 192 0 1 0 0 384 192 192 0 0 0 0-384zM621.781333 213.333333a21.333333 21.333333 0 0 1 3.84 42.325334l-3.84 0.341333h-328.533333a21.333333 21.333333 0 0 1-3.84-42.325333L293.248 213.333333h328.533333zM512 409.429333a21.333333 21.333333 0 0 1 3.84 42.325334l-3.84 0.341333H293.248a21.333333 21.333333 0 0 1-3.84-42.325333l3.84-0.341334H512z" fill="#333333" p-id="2185"></path><path d="M725.333333 627.712a21.333333 21.333333 0 0 1 20.992 17.493333l0.341334 3.84v88.917334l69.376 71.082666a21.333333 21.333333 0 0 1 2.133333 27.264l-2.474667 2.901334a21.333333 21.333333 0 0 1-27.264 2.133333l-2.901333-2.474667-81.536-83.498666v-106.325334a21.333333 21.333333 0 0 1 21.333333-21.333333z" fill="#188DC1" p-id="2186"></path></svg>